<svg width="108" height="108" viewBox="0 0 108 108" fill="none" xmlns="http://www.w3.org/2000/svg">
<path fill-rule="evenodd" clip-rule="evenodd" d="M93.2105 13.9076L107.118 0L81.4081 61.5162L61.7597 81.1646L0 107.118L14.5028 92.6153L16.9524 95.0649L18.636 93.3813L16.1864 90.9317L27.3402 79.7779L33.9988 86.4365L35.6824 84.7529L29.0238 78.0943L40.1775 66.9406L42.6271 69.3902L44.3107 67.7066L41.8611 65.257L53.0149 54.1032L59.6735 60.7618L61.3571 59.0782L54.6985 52.4196L65.8522 41.2659L68.3019 43.7155L69.9855 42.0319L67.5359 39.5822L78.6896 28.4285L85.3482 35.0871L87.0318 33.4035L80.3732 26.7449L91.527 15.5911L93.9766 18.0408L95.6602 16.3572L93.2105 13.9076ZM83.5227 81.5845V62.6469L107.393 5.53153V105.455L83.5227 81.5845ZM81.8348 83.2724L105.706 107.143H6.10199L62.9056 83.2724H81.8348Z" fill="#030712"/>
</svg>
